<svg width="47" height="46" viewBox="0 0 47 46" fill="none" xmlns="http://www.w3.org/2000/svg">
<circle cx="30.9422" cy="19.6415" r="15.961" fill="#EFAE98"/>
<path d="M4.70264 31.1558L14.1077 40.5609" stroke="#222222" stroke-width="2" stroke-linecap="round" stroke-linejoin="round"/>
<path d="M11.25 22.4227C11.0051 20.4309 11.2149 18.4095 11.8636 16.5104C12.5123 14.6114 13.583 12.8841 14.9953 11.4584C20.0649 6.33237 28.4125 6.2045 33.629 11.1811C35.6514 13.1084 37.0157 15.6237 37.5282 18.37C38.0408 21.1164 37.6755 23.9544 36.4844 26.4815C35.2932 29.0086 33.3366 31.0964 30.892 32.4489C28.4475 33.8015 25.6391 34.3499 22.8653 34.0165C22.258 33.9395 21.6411 34.0015 21.0613 34.1979C20.4815 34.3943 19.9539 34.7199 19.5185 35.1502L18.8103 35.8585C18.5608 36.1079 18.2225 36.248 17.8697 36.248C17.517 36.248 17.1787 36.1079 16.9292 35.8584L9.40513 28.3343C9.15569 28.0849 9.01556 27.7466 9.01556 27.3938C9.01555 27.0411 9.15568 26.7028 9.40511 26.4533L10.1141 25.7443C10.5431 25.3131 10.8684 24.79 11.0652 24.2145C11.262 23.639 11.3252 23.0262 11.25 22.4227V22.4227Z" stroke="#222222" stroke-width="2" stroke-linecap="round" stroke-linejoin="round"/>
<path d="M30.9592 16.2143C31.9141 17.5602 32.4274 19.1694 32.4285 20.8196C32.4295 22.4698 31.9181 24.0796 30.9649 25.4267" stroke="#222222" stroke-width="2" stroke-linecap="round" stroke-linejoin="round"/>
</svg>
