<svg width="16" height="24" viewBox="0 0 16 24" fill="none" xmlns="http://www.w3.org/2000/svg">
<path d="M15.5779 12.9514L4.49194 23.6067C4.22238 23.8589 3.86099 24 3.48473 24C3.10848 24 2.74709 23.8589 2.47753 23.6067L0.463117 21.6717C0.200611 21.4128 0.0537163 21.0657 0.0537163 20.7042C0.0537163 20.3428 0.200611 19.9957 0.463117 19.7367L7.41955 12.9514C7.68365 12.6932 7.83163 12.3458 7.83163 11.9839C7.83163 11.622 7.68365 11.2745 7.41955 11.0164L0.4094 4.26325C0.146895 4.00432 0 3.65718 0 3.29575C0 2.93433 0.146895 2.58719 0.4094 2.32826L2.42381 0.393262C2.69337 0.141106 3.05476 0 3.43102 0C3.80728 0 4.16867 0.141106 4.43822 0.393262L15.5779 10.997C15.7117 11.1252 15.8179 11.2776 15.8903 11.4452C15.9627 11.6129 16 11.7927 16 11.9742C16 12.1557 15.9627 12.3355 15.8903 12.5032C15.8179 12.6709 15.7117 12.8232 15.5779 12.9514Z" fill="#FA865F"/>
</svg>